<mxfile host="app.diagrams.net" modified="2024-04-06T15:35:24.556Z" agent="Mozilla/5.0 (Macintosh; Intel Mac OS X 10_15_7) AppleWebKit/537.36 (KHTML, like Gecko) Chrome/123.0.0.0 Safari/537.36" etag="n4uqiKm9rzxs8Ov-MOJQ" version="24.2.2" type="device">
  <diagram name="Page-1" id="Sx2UZqs4cbNBT7Wtza9e">
    <mxGraphModel dx="714" dy="1499" grid="1" gridSize="10" guides="1" tooltips="1" connect="1" arrows="1" fold="1" page="1" pageScale="1" pageWidth="827" pageHeight="1169" math="0" shadow="0">
      <root>
        <mxCell id="0" />
        <mxCell id="1" parent="0" />
        <mxCell id="j1Xux6yjvi7Os7y_vUsY-21" value="Deployment" style="shape=hexagon;perimeter=hexagonPerimeter2;whiteSpace=wrap;html=1;fixedSize=1;" parent="1" vertex="1">
          <mxGeometry x="200" y="40" width="90" height="50" as="geometry" />
        </mxCell>
        <mxCell id="j1Xux6yjvi7Os7y_vUsY-24" value="" style="endArrow=classic;html=1;rounded=0;exitX=0;exitY=0.75;exitDx=0;exitDy=0;entryX=1;entryY=0.25;entryDx=0;entryDy=0;" parent="1" source="j1Xux6yjvi7Os7y_vUsY-21" target="j1Xux6yjvi7Os7y_vUsY-13" edge="1">
          <mxGeometry width="50" height="50" relative="1" as="geometry">
            <mxPoint x="98" y="155" as="sourcePoint" />
            <mxPoint x="75" y="190" as="targetPoint" />
          </mxGeometry>
        </mxCell>
        <mxCell id="j1Xux6yjvi7Os7y_vUsY-28" value="" style="group" parent="1" vertex="1" connectable="0">
          <mxGeometry x="30" y="110" width="190" height="140" as="geometry" />
        </mxCell>
        <mxCell id="j1Xux6yjvi7Os7y_vUsY-13" value="ReplicaSet&lt;br&gt;v 1.0001" style="shape=hexagon;perimeter=hexagonPerimeter2;whiteSpace=wrap;html=1;fixedSize=1;" parent="j1Xux6yjvi7Os7y_vUsY-28" vertex="1">
          <mxGeometry x="50" width="90" height="50" as="geometry" />
        </mxCell>
        <mxCell id="j1Xux6yjvi7Os7y_vUsY-15" value="" style="group" parent="j1Xux6yjvi7Os7y_vUsY-28" vertex="1" connectable="0">
          <mxGeometry y="70" width="80" height="70" as="geometry" />
        </mxCell>
        <mxCell id="j1Xux6yjvi7Os7y_vUsY-27" value="" style="group" parent="j1Xux6yjvi7Os7y_vUsY-15" vertex="1" connectable="0">
          <mxGeometry width="80" height="70" as="geometry" />
        </mxCell>
        <mxCell id="j1Xux6yjvi7Os7y_vUsY-9" value="" style="rounded=0;whiteSpace=wrap;html=1;" parent="j1Xux6yjvi7Os7y_vUsY-27" vertex="1">
          <mxGeometry width="80" height="70" as="geometry" />
        </mxCell>
        <mxCell id="j1Xux6yjvi7Os7y_vUsY-10" value="&lt;font style=&quot;font-size: 6px;&quot;&gt;Log (sidecar)&lt;/font&gt;" style="rounded=1;whiteSpace=wrap;html=1;" parent="j1Xux6yjvi7Os7y_vUsY-27" vertex="1">
          <mxGeometry x="13.333333333333332" y="42.77777777777778" width="48.888888888888886" height="15.555555555555555" as="geometry" />
        </mxCell>
        <mxCell id="j1Xux6yjvi7Os7y_vUsY-11" value="App" style="rounded=1;whiteSpace=wrap;html=1;" parent="j1Xux6yjvi7Os7y_vUsY-27" vertex="1">
          <mxGeometry x="8.88888888888889" y="7.777777777777778" width="53.33333333333333" height="23.333333333333332" as="geometry" />
        </mxCell>
        <mxCell id="j1Xux6yjvi7Os7y_vUsY-16" value="" style="group" parent="j1Xux6yjvi7Os7y_vUsY-28" vertex="1" connectable="0">
          <mxGeometry x="120" y="70" width="70" height="70" as="geometry" />
        </mxCell>
        <mxCell id="j1Xux6yjvi7Os7y_vUsY-17" value="" style="rounded=0;whiteSpace=wrap;html=1;" parent="j1Xux6yjvi7Os7y_vUsY-16" vertex="1">
          <mxGeometry width="70" height="70" as="geometry" />
        </mxCell>
        <mxCell id="j1Xux6yjvi7Os7y_vUsY-18" value="&lt;font style=&quot;font-size: 6px;&quot;&gt;Log (sidecar)&lt;/font&gt;" style="rounded=1;whiteSpace=wrap;html=1;" parent="j1Xux6yjvi7Os7y_vUsY-16" vertex="1">
          <mxGeometry x="11.666666666666666" y="42.77777777777777" width="42.77777777777777" height="15.555555555555557" as="geometry" />
        </mxCell>
        <mxCell id="j1Xux6yjvi7Os7y_vUsY-19" value="App" style="rounded=1;whiteSpace=wrap;html=1;" parent="j1Xux6yjvi7Os7y_vUsY-16" vertex="1">
          <mxGeometry x="7.777777777777779" y="7.777777777777779" width="46.666666666666664" height="23.333333333333332" as="geometry" />
        </mxCell>
        <mxCell id="j1Xux6yjvi7Os7y_vUsY-22" value="" style="endArrow=classic;html=1;rounded=0;entryX=0.25;entryY=0;entryDx=0;entryDy=0;exitX=0.625;exitY=1;exitDx=0;exitDy=0;" parent="j1Xux6yjvi7Os7y_vUsY-28" source="j1Xux6yjvi7Os7y_vUsY-13" target="j1Xux6yjvi7Os7y_vUsY-17" edge="1">
          <mxGeometry width="50" height="50" relative="1" as="geometry">
            <mxPoint x="150" y="40" as="sourcePoint" />
            <mxPoint x="210" y="40" as="targetPoint" />
            <Array as="points" />
          </mxGeometry>
        </mxCell>
        <mxCell id="j1Xux6yjvi7Os7y_vUsY-23" value="" style="endArrow=classic;html=1;rounded=0;entryX=0.75;entryY=0;entryDx=0;entryDy=0;exitX=0.375;exitY=1;exitDx=0;exitDy=0;" parent="j1Xux6yjvi7Os7y_vUsY-28" source="j1Xux6yjvi7Os7y_vUsY-13" target="j1Xux6yjvi7Os7y_vUsY-9" edge="1">
          <mxGeometry width="50" height="50" relative="1" as="geometry">
            <mxPoint x="126" y="60" as="sourcePoint" />
            <mxPoint x="140" y="80" as="targetPoint" />
          </mxGeometry>
        </mxCell>
        <mxCell id="j1Xux6yjvi7Os7y_vUsY-29" value="" style="group" parent="1" vertex="1" connectable="0">
          <mxGeometry x="270" y="110" width="190" height="140" as="geometry" />
        </mxCell>
        <mxCell id="j1Xux6yjvi7Os7y_vUsY-30" value="ReplicaSet&lt;br&gt;v 1.0002" style="shape=hexagon;perimeter=hexagonPerimeter2;whiteSpace=wrap;html=1;fixedSize=1;" parent="j1Xux6yjvi7Os7y_vUsY-29" vertex="1">
          <mxGeometry x="50" width="90" height="50" as="geometry" />
        </mxCell>
        <mxCell id="j1Xux6yjvi7Os7y_vUsY-31" value="" style="group" parent="j1Xux6yjvi7Os7y_vUsY-29" vertex="1" connectable="0">
          <mxGeometry x="10" y="67.78" width="70" height="70" as="geometry" />
        </mxCell>
        <mxCell id="j1Xux6yjvi7Os7y_vUsY-32" value="" style="group" parent="j1Xux6yjvi7Os7y_vUsY-31" vertex="1" connectable="0">
          <mxGeometry width="70" height="70" as="geometry" />
        </mxCell>
        <mxCell id="j1Xux6yjvi7Os7y_vUsY-33" value="" style="rounded=0;whiteSpace=wrap;html=1;" parent="j1Xux6yjvi7Os7y_vUsY-32" vertex="1">
          <mxGeometry width="70" height="70" as="geometry" />
        </mxCell>
        <mxCell id="j1Xux6yjvi7Os7y_vUsY-34" value="&lt;font style=&quot;font-size: 6px;&quot;&gt;Log (sidecar)&lt;/font&gt;" style="rounded=1;whiteSpace=wrap;html=1;" parent="j1Xux6yjvi7Os7y_vUsY-32" vertex="1">
          <mxGeometry x="11.666666666666666" y="42.77777777777778" width="42.77777777777777" height="15.555555555555555" as="geometry" />
        </mxCell>
        <mxCell id="j1Xux6yjvi7Os7y_vUsY-35" value="App" style="rounded=1;whiteSpace=wrap;html=1;" parent="j1Xux6yjvi7Os7y_vUsY-32" vertex="1">
          <mxGeometry x="7.777777777777779" y="7.777777777777778" width="46.666666666666664" height="23.333333333333332" as="geometry" />
        </mxCell>
        <mxCell id="j1Xux6yjvi7Os7y_vUsY-36" value="" style="group" parent="j1Xux6yjvi7Os7y_vUsY-29" vertex="1" connectable="0">
          <mxGeometry x="120" y="70" width="70" height="70" as="geometry" />
        </mxCell>
        <mxCell id="j1Xux6yjvi7Os7y_vUsY-37" value="" style="rounded=0;whiteSpace=wrap;html=1;" parent="j1Xux6yjvi7Os7y_vUsY-36" vertex="1">
          <mxGeometry width="70" height="70" as="geometry" />
        </mxCell>
        <mxCell id="j1Xux6yjvi7Os7y_vUsY-38" value="&lt;font style=&quot;font-size: 6px;&quot;&gt;Log (sidecar)&lt;/font&gt;" style="rounded=1;whiteSpace=wrap;html=1;" parent="j1Xux6yjvi7Os7y_vUsY-36" vertex="1">
          <mxGeometry x="11.666666666666666" y="42.77777777777777" width="42.77777777777777" height="15.555555555555557" as="geometry" />
        </mxCell>
        <mxCell id="j1Xux6yjvi7Os7y_vUsY-39" value="App" style="rounded=1;whiteSpace=wrap;html=1;" parent="j1Xux6yjvi7Os7y_vUsY-36" vertex="1">
          <mxGeometry x="7.777777777777779" y="7.777777777777779" width="46.666666666666664" height="23.333333333333332" as="geometry" />
        </mxCell>
        <mxCell id="j1Xux6yjvi7Os7y_vUsY-40" value="" style="endArrow=classic;html=1;rounded=0;entryX=0.25;entryY=0;entryDx=0;entryDy=0;exitX=0.625;exitY=1;exitDx=0;exitDy=0;" parent="j1Xux6yjvi7Os7y_vUsY-29" source="j1Xux6yjvi7Os7y_vUsY-30" target="j1Xux6yjvi7Os7y_vUsY-37" edge="1">
          <mxGeometry width="50" height="50" relative="1" as="geometry">
            <mxPoint x="150" y="40" as="sourcePoint" />
            <mxPoint x="210" y="40" as="targetPoint" />
            <Array as="points" />
          </mxGeometry>
        </mxCell>
        <mxCell id="j1Xux6yjvi7Os7y_vUsY-41" value="" style="endArrow=classic;html=1;rounded=0;entryX=0.75;entryY=0;entryDx=0;entryDy=0;exitX=0.375;exitY=1;exitDx=0;exitDy=0;" parent="j1Xux6yjvi7Os7y_vUsY-29" source="j1Xux6yjvi7Os7y_vUsY-30" target="j1Xux6yjvi7Os7y_vUsY-33" edge="1">
          <mxGeometry width="50" height="50" relative="1" as="geometry">
            <mxPoint x="126" y="60" as="sourcePoint" />
            <mxPoint x="140" y="80" as="targetPoint" />
          </mxGeometry>
        </mxCell>
        <mxCell id="j1Xux6yjvi7Os7y_vUsY-42" value="" style="endArrow=classic;html=1;rounded=0;exitX=1;exitY=0.75;exitDx=0;exitDy=0;entryX=0;entryY=0.25;entryDx=0;entryDy=0;" parent="1" source="j1Xux6yjvi7Os7y_vUsY-21" target="j1Xux6yjvi7Os7y_vUsY-30" edge="1">
          <mxGeometry width="50" height="50" relative="1" as="geometry">
            <mxPoint x="218" y="85" as="sourcePoint" />
            <mxPoint x="172" y="135" as="targetPoint" />
          </mxGeometry>
        </mxCell>
        <mxCell id="j1Xux6yjvi7Os7y_vUsY-45" value="&lt;b&gt;Service Discovery&lt;br&gt;&lt;/b&gt;&lt;font style=&quot;font-size: 9px;&quot;&gt;&amp;gt; ClusterIp&lt;br&gt;&amp;gt; LoadBalancer&lt;br&gt;&amp;gt; nodePort&lt;/font&gt;" style="rounded=1;whiteSpace=wrap;html=1;" parent="1" vertex="1">
          <mxGeometry x="180" y="-60" width="130" height="80" as="geometry" />
        </mxCell>
      </root>
    </mxGraphModel>
  </diagram>
</mxfile>
